<?xml version="1.0" standalone="no"?>
<!DOCTYPE svg PUBLIC "-//W3C//DTD SVG 20010904//EN"
 "http://www.w3.org/TR/2001/REC-SVG-20010904/DTD/svg10.dtd">
<svg version="1.0" xmlns="http://www.w3.org/2000/svg"
 width="512.000000pt" height="512.000000pt" viewBox="0 0 512.000000 512.000000"
 preserveAspectRatio="xMidYMid meet">
<metadata>
Created by potrace 1.16, written by Peter Selinger 2001-2019
</metadata>
<g transform="translate(0.000000,512.000000) scale(0.100000,-0.100000)"
fill="#000000" stroke="none">
<path d="M3925 4689 c-11 -6 -458 -448 -992 -983 l-973 -971 -372 372 c-205
205 -386 377 -401 382 -40 16 -102 13 -145 -4 -44 -19 -967 -933 -1013 -1004
-34 -53 -39 -131 -13 -184 22 -44 1810 -1834 1856 -1858 52 -27 132 -25 180 4
41 24 3038 3029 3056 3064 17 31 15 119 -3 157 -20 42 -992 1012 -1028 1025
-36 14 -126 14 -152 0z m-600 -2469 l-1365 -1365 -762 763 -763 762 342 342
343 343 367 -367 c250 -249 380 -372 405 -383 49 -20 94 -19 143 4 27 13 342
321 1005 985 l965 966 342 -342 343 -343 -1365 -1365z"/>
</g>
</svg>
